<?xml version="1.0" encoding="utf-8"?>
<!-- Generator: Adobe Illustrator 25.4.1, SVG Export Plug-In . SVG Version: 6.00 Build 0)  -->
<svg version="1.1" id="Layer_1" xmlns="http://www.w3.org/2000/svg" xmlns:xlink="http://www.w3.org/1999/xlink" x="0px" y="0px"
	 viewBox="0 0 360 360" style="enable-background:new 0 0 360 360;" xml:space="preserve">
<style type="text/css">
	.st0{fill:#130E07;}
</style>
<g>
	<path class="st0" d="M186.8,65.2H51.7l13.3,46h121.8c12.7,0,23,10.3,23,23v23h-115c-38.1,0-69,31-69,69c0,38.1,31,69,69,69h92
		c38.1,0,69-31,69-69v-46v-23v-23C255.8,96.2,224.9,65.2,186.8,65.2z M209.8,226.3c0,12.7-10.3,23-23,23h-92c-12.7,0-23-10.3-23-23
		c0-12.7,10.3-23,23-23h115V226.3z"/>
	<polygon class="st0" points="321.7,157.3 279.7,157.3 279.7,203.3 335,203.3 	"/>
</g>
</svg>
